<svg xmlns="http://www.w3.org/2000/svg" viewBox="0 0 547.95 547.25"><defs><style>.cls-1{fill:#e3dbcf;}.cls-2{fill:#e32633;}.cls-3{fill:#f9323f;}.cls-4,.cls-5{fill:none;stroke:#000;stroke-miterlimit:10;}.cls-4{stroke-width:14.28px;}.cls-5{stroke-width:11.42px;}</style></defs><title>denied</title><g id="Layer_2" data-name="Layer 2"><g id="Layer_1-2" data-name="Layer 1"><path class="cls-1" d="M336.59,21.66c72.08,45.05,39.13,52.1,143.56,121.45,45.6,30.29,100.68,121.75,43.06,228.2-46.75,86.36-131.85,125.82-190.78,156.5C256.56,567.3,101,548.67,49.25,452.94S-14.7,243,18.56,191.07C85.1,87.1,99.63,164,187.13,51.32,254.06-34.91,320,11.26,336.59,21.66Z"/><path class="cls-2" d="M442.91,285.53A168.47,168.47,0,0,1,282.06,453.82c-2.52.11-5.05.17-7.61.17a168.46,168.46,0,0,1,0-336.92,172,172,0,0,1,17.38.88A168.49,168.49,0,0,1,442.91,285.53Z"/><path class="cls-3" d="M442.91,285.53A168.47,168.47,0,0,1,282.06,453.82,168.47,168.47,0,0,1,291.83,118,168.49,168.49,0,0,1,442.91,285.53Z"/><path class="cls-4" d="M442.91,285.53A168.47,168.47,0,0,1,282.06,453.82c-2.52.11-5.05.17-7.61.17a168.46,168.46,0,0,1,0-336.92,172,172,0,0,1,17.38.88A168.49,168.49,0,0,1,442.91,285.53Z"/><line class="cls-5" x1="214.22" y1="226.25" x2="334.22" y2="346.25"/><line class="cls-5" x1="214.22" y1="346.25" x2="334.22" y2="226.25"/></g></g></svg>