<svg xmlns="http://www.w3.org/2000/svg" viewBox="0 0 582.99 519.68"><defs><style>.cls-1{fill:#e3dbcf;}.cls-2{fill:#00b777;}.cls-3{fill:#29de8b;}.cls-4{fill:none;stroke:#000;stroke-miterlimit:10;stroke-width:14.28px;}</style></defs><title>accepted</title><g id="Layer_2" data-name="Layer 2"><g id="Layer_1-2" data-name="Layer 1"><path class="cls-1" d="M391.28.27c-44.51-4.38-249,44.3-325.38,145.12S-41,385.22,88.82,469.24s326.9,47.35,391.05,3.05,73.33-51.94,88.6-76.38,27.5-55-12.22-113-53.46-163.45-55-168S484.46,9.44,391.28.27Z"/><path class="cls-2" d="M460.41,260A168.47,168.47,0,0,1,299.56,428.24c-2.53.11-5.05.17-7.61.17A168.46,168.46,0,1,1,460.41,260Z"/><path class="cls-3" d="M460.41,260A168.47,168.47,0,0,1,299.56,428.24a168.47,168.47,0,0,1,9.77-335.86A168.47,168.47,0,0,1,460.41,260Z"/><path class="cls-4" d="M460.41,260A168.47,168.47,0,0,1,299.56,428.24c-2.53.11-5.05.17-7.61.17A168.46,168.46,0,1,1,460.41,260Z"/><polyline class="cls-4" points="230.56 264.23 274.11 307.78 367.62 214.27"/></g></g></svg>